<svg width="105" height="29" viewBox="0 0 105 29" fill="none" xmlns="http://www.w3.org/2000/svg">
<mask id="path-1-outside-1_308_10831" maskUnits="userSpaceOnUse" x="21.8391" y="0" width="83" height="29" fill="black">
<rect fill="white" x="21.8391" width="83" height="29"/>
<path d="M42.7065 8.66936C44.263 8.66936 45.4735 9.15575 46.3382 10.1285C47.2029 11.1013 47.6353 12.3984 47.6353 14.0197V24.2015C47.6353 24.3744 47.5704 24.5257 47.4407 24.6554C47.3326 24.7635 47.1921 24.8176 47.0192 24.8176H43.6144C43.4415 24.8176 43.2902 24.7635 43.1605 24.6554C43.0524 24.5257 42.9983 24.3744 42.9983 24.2015V14.7006C42.9983 14.0305 42.8254 13.5117 42.4795 13.1442C42.1553 12.7767 41.7121 12.5929 41.1501 12.5929H40.3718C39.6368 12.5929 39.0532 12.8415 38.6208 13.3387C38.1885 13.8143 37.9723 14.452 37.9723 15.2519V24.2015C37.9723 24.3744 37.9074 24.5257 37.7777 24.6554C37.6697 24.7635 37.5291 24.8176 37.3562 24.8176H33.9515C33.7785 24.8176 33.6272 24.7635 33.4975 24.6554C33.3894 24.5257 33.3354 24.3744 33.3354 24.2015V9.60971C33.3354 9.43677 33.3894 9.29626 33.4975 9.18817C33.6272 9.05847 33.7785 8.99362 33.9515 8.99362H36.9995C37.1725 8.99362 37.313 9.05847 37.4211 9.18817C37.5508 9.29626 37.6156 9.43677 37.6156 9.60971V10.9716C38.0047 10.2582 38.5776 9.69618 39.3342 9.28545C40.0908 8.87472 40.9771 8.66936 41.9931 8.66936H42.7065Z"/>
<path d="M55.0877 25.1418C53.1854 25.1418 51.6938 24.7743 50.6129 24.0393C49.532 23.2827 48.9159 22.2127 48.7646 20.8291V20.7643C48.7646 20.5913 48.8295 20.4508 48.9592 20.3427C49.0889 20.213 49.2402 20.1482 49.4131 20.1482H52.3639C52.6449 20.1482 52.8395 20.3211 52.9476 20.667C53.1205 21.4236 53.7906 21.8019 54.958 21.8019H55.9632C57.5845 21.8019 58.3952 21.2291 58.3952 20.0833C58.3952 19.5645 58.1898 19.1862 57.7791 18.9484C57.3683 18.7106 56.7414 18.5485 55.8983 18.462C54.1689 18.2675 52.8071 17.9973 51.8127 17.6514C50.8399 17.3055 50.1265 16.8191 49.6725 16.1922C49.2402 15.5437 49.024 14.6898 49.024 13.6305C49.024 12.0092 49.5969 10.7771 50.7426 9.93397C51.8883 9.0909 53.4448 8.66936 55.412 8.66936H55.7686C57.671 8.66936 59.1626 9.02604 60.2434 9.73942C61.3243 10.4528 61.9512 11.4904 62.1242 12.8523V12.9172C62.1242 13.0901 62.0593 13.2414 61.9296 13.3711C61.7999 13.4792 61.6486 13.5333 61.4756 13.5333H58.5249C58.2438 13.5333 58.0493 13.3711 57.9412 13.0469C57.7466 12.3551 57.0225 12.0092 55.7686 12.0092H55.5092C54.0609 12.0092 53.3367 12.4956 53.3367 13.4684C53.3367 13.944 53.5312 14.2683 53.9204 14.4412C54.3311 14.6141 55.0985 14.7655 56.2226 14.8952C58.5573 15.1113 60.2218 15.6085 61.2162 16.3868C62.2106 17.1434 62.7078 18.2891 62.7078 19.8239C62.7078 21.5966 62.0917 22.926 60.8595 23.8123C59.649 24.6987 57.9628 25.1418 55.8011 25.1418H55.0877Z"/>
<path d="M64.109 9.60971C64.109 9.43677 64.163 9.29626 64.2711 9.18817C64.4008 9.05847 64.5521 8.99362 64.7251 8.99362H68.1298C68.3028 8.99362 68.4433 9.05847 68.5514 9.18817C68.6811 9.29626 68.7459 9.43677 68.7459 9.60971V24.2015C68.7459 24.3744 68.6811 24.5257 68.5514 24.6554C68.4433 24.7635 68.3028 24.8176 68.1298 24.8176H64.7251C64.5521 24.8176 64.4008 24.7635 64.2711 24.6554C64.163 24.5257 64.109 24.3744 64.109 24.2015V9.60971Z"/>
<path d="M79.9297 21.0561C80.1026 21.0561 80.2431 21.121 80.3512 21.2507C80.4809 21.3588 80.5458 21.4993 80.5458 21.6722V24.5257C80.5458 24.6987 80.4809 24.8392 80.3512 24.9473C80.2431 25.077 80.1026 25.1418 79.9297 25.1418H77.822C75.7899 25.1418 74.3308 24.7311 73.4444 23.9096C72.5581 23.0882 72.115 21.8668 72.115 20.2455V12.4956H70.8179C70.645 12.4956 70.4937 12.4524 70.364 12.3659C70.2559 12.2578 70.2018 12.1389 70.2018 12.0092V11.7174C70.2018 11.5877 70.2343 11.4904 70.2991 11.4256L72.115 8.99362L75.3252 4.22698C75.4332 4.07566 75.5846 4 75.7791 4H76.1358C76.3087 4 76.4493 4.06485 76.5573 4.19456C76.687 4.30264 76.7519 4.44316 76.7519 4.6161V8.99362H79.4433C79.6162 8.99362 79.7567 9.05847 79.8648 9.18817C79.9945 9.29626 80.0594 9.43677 80.0594 9.60971V11.8795C80.0594 12.0525 79.9945 12.2038 79.8648 12.3335C79.7567 12.4416 79.6162 12.4956 79.4433 12.4956H76.7519V18.9809C76.7519 19.7158 76.9573 20.2455 77.368 20.5697C77.7787 20.894 78.384 21.0561 79.1839 21.0561H79.9297Z"/>
<path d="M85.0841 19.143C85.0841 20.9156 85.8299 21.8019 87.3215 21.8019H88.7159C89.667 21.8019 90.2507 21.4344 90.4669 20.6994C90.5749 20.3752 90.7695 20.213 91.0505 20.213H94.1959C94.3904 20.213 94.5526 20.2779 94.6823 20.4076C94.812 20.5373 94.866 20.6994 94.8444 20.894C94.6714 22.1694 94.0337 23.1962 92.9312 23.9745C91.8504 24.7527 90.4777 25.1418 88.8131 25.1418H87.127C85.1382 25.1418 83.5385 24.6014 82.3279 23.5205C81.139 22.418 80.5445 20.9805 80.5445 19.2078V15.0573C80.5445 13.8035 80.8147 12.6902 81.3551 11.7174C81.9172 10.7446 82.6954 9.99882 83.6898 9.48001C84.7058 8.93957 85.8732 8.66936 87.1918 8.66936H88.4889C90.4561 8.66936 92.0233 9.24222 93.1907 10.3879C94.358 11.512 94.9417 13.0253 94.9417 14.9276C94.9417 16.203 94.6931 17.1001 94.1959 17.619C93.6987 18.1378 92.8448 18.3972 91.6342 18.3972H85.0841V19.143ZM87.5161 12.1389C86.6946 12.1389 86.0785 12.3984 85.6678 12.9172C85.2787 13.4144 85.0841 14.1386 85.0841 15.0897V15.3816H90.5966V15.0897C90.5966 14.0953 90.3804 13.3603 89.948 12.8847C89.5373 12.3875 88.9537 12.1389 88.197 12.1389H87.5161Z"/>
<path d="M96.1361 20.5697C96.1361 20.3968 96.1902 20.2563 96.2982 20.1482C96.4279 20.0185 96.5793 19.9536 96.7522 19.9536H100.384C100.557 19.9536 100.697 20.0185 100.805 20.1482C100.935 20.2563 101 20.3968 101 20.5697V24.2015C101 24.3744 100.935 24.5257 100.805 24.6554C100.697 24.7635 100.557 24.8176 100.384 24.8176H96.7522C96.5793 24.8176 96.4279 24.7635 96.2982 24.6554C96.1902 24.5257 96.1361 24.3744 96.1361 24.2015V20.5697Z"/>
<path d="M25.9364 9.44758C25.9364 9.27464 25.9904 9.13413 26.0985 9.02604C26.2282 8.89634 26.3795 8.83149 26.5525 8.83149H29.9572C30.1302 8.83149 30.2707 8.89634 30.3788 9.02604C30.5085 9.13413 30.5733 9.27464 30.5733 9.44758V24.0393C30.5733 24.2123 30.5085 24.3636 30.3788 24.4933C30.2707 24.6014 30.1302 24.6554 29.9572 24.6554H26.5525C26.3795 24.6554 26.2282 24.6014 26.0985 24.4933C25.9904 24.3636 25.9364 24.2123 25.9364 24.0393V9.44758Z"/>
</mask>
<path d="M42.7065 8.66936C44.263 8.66936 45.4735 9.15575 46.3382 10.1285C47.2029 11.1013 47.6353 12.3984 47.6353 14.0197V24.2015C47.6353 24.3744 47.5704 24.5257 47.4407 24.6554C47.3326 24.7635 47.1921 24.8176 47.0192 24.8176H43.6144C43.4415 24.8176 43.2902 24.7635 43.1605 24.6554C43.0524 24.5257 42.9983 24.3744 42.9983 24.2015V14.7006C42.9983 14.0305 42.8254 13.5117 42.4795 13.1442C42.1553 12.7767 41.7121 12.5929 41.1501 12.5929H40.3718C39.6368 12.5929 39.0532 12.8415 38.6208 13.3387C38.1885 13.8143 37.9723 14.452 37.9723 15.2519V24.2015C37.9723 24.3744 37.9074 24.5257 37.7777 24.6554C37.6697 24.7635 37.5291 24.8176 37.3562 24.8176H33.9515C33.7785 24.8176 33.6272 24.7635 33.4975 24.6554C33.3894 24.5257 33.3354 24.3744 33.3354 24.2015V9.60971C33.3354 9.43677 33.3894 9.29626 33.4975 9.18817C33.6272 9.05847 33.7785 8.99362 33.9515 8.99362H36.9995C37.1725 8.99362 37.313 9.05847 37.4211 9.18817C37.5508 9.29626 37.6156 9.43677 37.6156 9.60971V10.9716C38.0047 10.2582 38.5776 9.69618 39.3342 9.28545C40.0908 8.87472 40.9771 8.66936 41.9931 8.66936H42.7065Z" fill="white"/>
<path d="M55.0877 25.1418C53.1854 25.1418 51.6938 24.7743 50.6129 24.0393C49.532 23.2827 48.9159 22.2127 48.7646 20.8291V20.7643C48.7646 20.5913 48.8295 20.4508 48.9592 20.3427C49.0889 20.213 49.2402 20.1482 49.4131 20.1482H52.3639C52.6449 20.1482 52.8395 20.3211 52.9476 20.667C53.1205 21.4236 53.7906 21.8019 54.958 21.8019H55.9632C57.5845 21.8019 58.3952 21.2291 58.3952 20.0833C58.3952 19.5645 58.1898 19.1862 57.7791 18.9484C57.3683 18.7106 56.7414 18.5485 55.8983 18.462C54.1689 18.2675 52.8071 17.9973 51.8127 17.6514C50.8399 17.3055 50.1265 16.8191 49.6725 16.1922C49.2402 15.5437 49.024 14.6898 49.024 13.6305C49.024 12.0092 49.5969 10.7771 50.7426 9.93397C51.8883 9.0909 53.4448 8.66936 55.412 8.66936H55.7686C57.671 8.66936 59.1626 9.02604 60.2434 9.73942C61.3243 10.4528 61.9512 11.4904 62.1242 12.8523V12.9172C62.1242 13.0901 62.0593 13.2414 61.9296 13.3711C61.7999 13.4792 61.6486 13.5333 61.4756 13.5333H58.5249C58.2438 13.5333 58.0493 13.3711 57.9412 13.0469C57.7466 12.3551 57.0225 12.0092 55.7686 12.0092H55.5092C54.0609 12.0092 53.3367 12.4956 53.3367 13.4684C53.3367 13.944 53.5312 14.2683 53.9204 14.4412C54.3311 14.6141 55.0985 14.7655 56.2226 14.8952C58.5573 15.1113 60.2218 15.6085 61.2162 16.3868C62.2106 17.1434 62.7078 18.2891 62.7078 19.8239C62.7078 21.5966 62.0917 22.926 60.8595 23.8123C59.649 24.6987 57.9628 25.1418 55.8011 25.1418H55.0877Z" fill="white"/>
<path d="M64.109 9.60971C64.109 9.43677 64.163 9.29626 64.2711 9.18817C64.4008 9.05847 64.5521 8.99362 64.7251 8.99362H68.1298C68.3028 8.99362 68.4433 9.05847 68.5514 9.18817C68.6811 9.29626 68.7459 9.43677 68.7459 9.60971V24.2015C68.7459 24.3744 68.6811 24.5257 68.5514 24.6554C68.4433 24.7635 68.3028 24.8176 68.1298 24.8176H64.7251C64.5521 24.8176 64.4008 24.7635 64.2711 24.6554C64.163 24.5257 64.109 24.3744 64.109 24.2015V9.60971Z" fill="white"/>
<path d="M79.9297 21.0561C80.1026 21.0561 80.2431 21.121 80.3512 21.2507C80.4809 21.3588 80.5458 21.4993 80.5458 21.6722V24.5257C80.5458 24.6987 80.4809 24.8392 80.3512 24.9473C80.2431 25.077 80.1026 25.1418 79.9297 25.1418H77.822C75.7899 25.1418 74.3308 24.7311 73.4444 23.9096C72.5581 23.0882 72.115 21.8668 72.115 20.2455V12.4956H70.8179C70.645 12.4956 70.4937 12.4524 70.364 12.3659C70.2559 12.2578 70.2018 12.1389 70.2018 12.0092V11.7174C70.2018 11.5877 70.2343 11.4904 70.2991 11.4256L72.115 8.99362L75.3252 4.22698C75.4332 4.07566 75.5846 4 75.7791 4H76.1358C76.3087 4 76.4493 4.06485 76.5573 4.19456C76.687 4.30264 76.7519 4.44316 76.7519 4.6161V8.99362H79.4433C79.6162 8.99362 79.7567 9.05847 79.8648 9.18817C79.9945 9.29626 80.0594 9.43677 80.0594 9.60971V11.8795C80.0594 12.0525 79.9945 12.2038 79.8648 12.3335C79.7567 12.4416 79.6162 12.4956 79.4433 12.4956H76.7519V18.9809C76.7519 19.7158 76.9573 20.2455 77.368 20.5697C77.7787 20.894 78.384 21.0561 79.1839 21.0561H79.9297Z" fill="white"/>
<path d="M85.0841 19.143C85.0841 20.9156 85.8299 21.8019 87.3215 21.8019H88.7159C89.667 21.8019 90.2507 21.4344 90.4669 20.6994C90.5749 20.3752 90.7695 20.213 91.0505 20.213H94.1959C94.3904 20.213 94.5526 20.2779 94.6823 20.4076C94.812 20.5373 94.866 20.6994 94.8444 20.894C94.6714 22.1694 94.0337 23.1962 92.9312 23.9745C91.8504 24.7527 90.4777 25.1418 88.8131 25.1418H87.127C85.1382 25.1418 83.5385 24.6014 82.3279 23.5205C81.139 22.418 80.5445 20.9805 80.5445 19.2078V15.0573C80.5445 13.8035 80.8147 12.6902 81.3551 11.7174C81.9172 10.7446 82.6954 9.99882 83.6898 9.48001C84.7058 8.93957 85.8732 8.66936 87.1918 8.66936H88.4889C90.4561 8.66936 92.0233 9.24222 93.1907 10.3879C94.358 11.512 94.9417 13.0253 94.9417 14.9276C94.9417 16.203 94.6931 17.1001 94.1959 17.619C93.6987 18.1378 92.8448 18.3972 91.6342 18.3972H85.0841V19.143ZM87.5161 12.1389C86.6946 12.1389 86.0785 12.3984 85.6678 12.9172C85.2787 13.4144 85.0841 14.1386 85.0841 15.0897V15.3816H90.5966V15.0897C90.5966 14.0953 90.3804 13.3603 89.948 12.8847C89.5373 12.3875 88.9537 12.1389 88.197 12.1389H87.5161Z" fill="white"/>
<path d="M96.1361 20.5697C96.1361 20.3968 96.1902 20.2563 96.2982 20.1482C96.4279 20.0185 96.5793 19.9536 96.7522 19.9536H100.384C100.557 19.9536 100.697 20.0185 100.805 20.1482C100.935 20.2563 101 20.3968 101 20.5697V24.2015C101 24.3744 100.935 24.5257 100.805 24.6554C100.697 24.7635 100.557 24.8176 100.384 24.8176H96.7522C96.5793 24.8176 96.4279 24.7635 96.2982 24.6554C96.1902 24.5257 96.1361 24.3744 96.1361 24.2015V20.5697Z" fill="white"/>
<path d="M25.9364 9.44758C25.9364 9.27464 25.9904 9.13413 26.0985 9.02604C26.2282 8.89634 26.3795 8.83149 26.5525 8.83149H29.9572C30.1302 8.83149 30.2707 8.89634 30.3788 9.02604C30.5085 9.13413 30.5733 9.27464 30.5733 9.44758V24.0393C30.5733 24.2123 30.5085 24.3636 30.3788 24.4933C30.2707 24.6014 30.1302 24.6554 29.9572 24.6554H26.5525C26.3795 24.6554 26.2282 24.6014 26.0985 24.4933C25.9904 24.3636 25.9364 24.2123 25.9364 24.0393V9.44758Z" fill="white"/>
<path d="M30.5733 24.6554L29.2416 23.3237L29.2416 23.3237L30.5733 24.6554ZM26.0012 24.6554L24.5544 25.8611L24.664 25.9926L24.7956 26.1022L26.0012 24.6554ZM30.7679 24.2015H28.8846C28.8846 24.046 28.9151 23.8733 28.9882 23.7028C29.0603 23.5344 29.1564 23.409 29.2416 23.3237L30.5733 24.6554L31.905 25.9871C32.3641 25.528 32.6512 24.9065 32.6512 24.2015H30.7679ZM30.5733 24.6554L29.2416 23.3237C29.3709 23.1944 29.5312 23.0883 29.7108 23.0192C29.8858 22.9519 30.041 22.9342 30.1518 22.9342V24.8176V26.7009C30.7527 26.7009 31.3962 26.4959 31.905 25.9871L30.5733 24.6554ZM30.1518 24.8176V22.9342H26.4552V24.8176V26.7009H30.1518V24.8176ZM26.4552 24.8176V22.9342C26.5681 22.9342 26.7028 22.9525 26.8455 23.0034C26.9887 23.0546 27.1104 23.1282 27.2069 23.2086L26.0012 24.6554L24.7956 26.1022C25.2726 26.4997 25.8533 26.7009 26.4552 26.7009V24.8176ZM26.0012 24.6554L27.448 23.4497C27.5284 23.5462 27.6021 23.668 27.6532 23.8112C27.7042 23.9538 27.7224 24.0886 27.7224 24.2015H25.8391H23.9558C23.9558 24.8033 24.1569 25.3841 24.5544 25.8611L26.0012 24.6554ZM46.3382 10.1285L43.523 12.631L43.523 12.631L46.3382 10.1285ZM47.4407 24.6554L50.1041 27.3188L50.1041 27.3188L47.4407 24.6554ZM43.1605 24.6554L40.2669 27.0668L40.4861 27.3298L40.7491 27.549L43.1605 24.6554ZM42.4795 13.1442L39.6551 15.6362L39.6952 15.6816L39.7367 15.7257L42.4795 13.1442ZM38.6208 13.3387L41.4079 15.8724L41.4359 15.8417L41.4631 15.8103L38.6208 13.3387ZM37.7777 24.6554L35.1143 21.992L35.1143 21.992L37.7777 24.6554ZM33.4975 24.6554L30.6039 27.0668L30.8231 27.3298L31.0861 27.549L33.4975 24.6554ZM33.4975 9.18817L36.1609 11.8516L36.1609 11.8516L33.4975 9.18817ZM37.4211 9.18817L34.5274 11.5995L34.7466 11.8626L35.0097 12.0818L37.4211 9.18817ZM37.6156 10.9716H33.849L40.9223 12.7753L37.6156 10.9716ZM39.3342 9.28545L37.5372 5.97512L37.5372 5.97513L39.3342 9.28545ZM50.6129 24.0393L48.4529 27.1251L48.4738 27.1397L48.4949 27.1541L50.6129 24.0393ZM48.7646 20.8291H44.998V21.0345L45.0203 21.2387L48.7646 20.8291ZM48.9592 20.3427L51.3705 23.2364L51.5018 23.127L51.6226 23.0062L48.9592 20.3427ZM52.9476 20.667L56.6195 19.8277L56.5867 19.6841L56.5428 19.5435L52.9476 20.667ZM57.7791 18.9484L59.6663 15.6887L59.6663 15.6887L57.7791 18.9484ZM55.8983 18.462L55.4772 22.2051L55.4956 22.2071L55.514 22.209L55.8983 18.462ZM51.8127 17.6514L50.5508 21.2004L50.563 21.2047L50.5752 21.209L51.8127 17.6514ZM49.6725 16.1922L46.5385 18.2816L46.579 18.3423L46.6218 18.4014L49.6725 16.1922ZM60.2434 9.73942L62.3183 6.59574L62.3183 6.59574L60.2434 9.73942ZM62.1242 12.8523H65.8908V12.6141L65.8608 12.3778L62.1242 12.8523ZM61.9296 13.3711L64.3409 16.2648L64.4722 16.1554L64.593 16.0346L61.9296 13.3711ZM57.9412 13.0469L54.3152 14.0667L54.3395 14.153L54.3678 14.238L57.9412 13.0469ZM53.9204 14.4412L52.3906 17.8832L52.4245 17.8983L52.4587 17.9127L53.9204 14.4412ZM56.2226 14.8952L55.7909 18.637L55.833 18.6419L55.8753 18.6458L56.2226 14.8952ZM61.2162 16.3868L58.8948 19.353L58.915 19.3688L58.9354 19.3844L61.2162 16.3868ZM60.8595 23.8123L58.6601 20.7546L58.6472 20.7638L58.6344 20.7732L60.8595 23.8123ZM64.2711 9.18817L66.9345 11.8516L66.9345 11.8516L64.2711 9.18817ZM68.5514 9.18817L65.6577 11.5995L65.877 11.8626L66.14 12.0818L68.5514 9.18817ZM68.5514 24.6554L65.8879 21.992L65.8879 21.992L68.5514 24.6554ZM64.2711 24.6554L61.3775 27.0668L61.5967 27.3298L61.8598 27.549L64.2711 24.6554ZM80.3512 21.2507L77.4576 23.662L77.6768 23.9251L77.9398 24.1443L80.3512 21.2507ZM80.3512 24.9473L77.9398 22.0536L77.6768 22.2729L77.4576 22.5359L80.3512 24.9473ZM72.115 12.4956H75.8816V8.72899H72.115V12.4956ZM70.364 12.3659L67.7005 15.0293L67.9643 15.2931L68.2746 15.5L70.364 12.3659ZM70.2991 11.4256L72.9625 14.089L73.1547 13.8969L73.3172 13.6791L70.2991 11.4256ZM72.115 8.99362L75.1331 11.2472L75.188 11.1737L75.2392 11.0977L72.115 8.99362ZM75.3252 4.22698L72.2601 2.03766L72.23 2.07989L72.201 2.12293L75.3252 4.22698ZM76.5573 4.19456L73.6637 6.60591L73.8829 6.86896L74.146 7.08817L76.5573 4.19456ZM76.7519 8.99362H72.9853V12.7603H76.7519V8.99362ZM79.8648 9.18817L76.9712 11.5995L77.1904 11.8626L77.4535 12.0818L79.8648 9.18817ZM79.8648 12.3335L77.2014 9.67009L77.2014 9.67009L79.8648 12.3335ZM76.7519 12.4956V8.72899H72.9853V12.4956H76.7519ZM77.368 20.5697L79.702 17.6134L79.702 17.6134L77.368 20.5697ZM90.4669 20.6994L86.8935 19.5083L86.8722 19.5721L86.8533 19.6366L90.4669 20.6994ZM94.6823 20.4076L97.3457 17.7442L97.3457 17.7442L94.6823 20.4076ZM94.8444 20.894L98.5769 21.4001L98.583 21.3551L98.588 21.3099L94.8444 20.894ZM92.9312 23.9745L90.7591 20.8972L90.7447 20.9074L90.7304 20.9177L92.9312 23.9745ZM82.3279 23.5205L79.7668 26.2825L79.7928 26.3066L79.8193 26.3302L82.3279 23.5205ZM81.3551 11.7174L78.0937 9.83304L78.0779 9.86047L78.0625 9.88817L81.3551 11.7174ZM83.6898 9.48001L85.4321 12.8195L85.4454 12.8125L85.4587 12.8055L83.6898 9.48001ZM93.1907 10.3879L90.5522 13.0761L90.565 13.0887L90.578 13.1011L93.1907 10.3879ZM94.1959 17.619L91.4764 15.0128L91.4764 15.0128L94.1959 17.619ZM85.0841 18.3972V14.6305H81.3175V18.3972H85.0841ZM85.6678 12.9172L82.7146 10.5792L82.708 10.5875L82.7016 10.5958L85.6678 12.9172ZM85.0841 15.3816H81.3175V19.1482H85.0841V15.3816ZM90.5966 15.3816V19.1482H94.3632V15.3816H90.5966ZM89.948 12.8847L87.0441 15.2837L87.1009 15.3524L87.161 15.4185L89.948 12.8847ZM96.2982 20.1482L98.9617 22.8116L96.2982 20.1482ZM100.805 20.1482L97.9119 22.5595L98.1311 22.8226L98.3941 23.0418L100.805 20.1482ZM100.805 24.6554L103.469 27.3188L103.469 27.3188L100.805 24.6554ZM96.2982 24.6554L93.4046 27.0668L93.6238 27.3298L93.8869 27.549L96.2982 24.6554ZM26.0985 9.02604L28.7619 11.6895L28.7619 11.6895L26.0985 9.02604ZM30.3788 9.02604L27.4851 11.4374L27.7044 11.7004L27.9674 11.9197L30.3788 9.02604ZM30.3788 24.4933L27.7153 21.8299L27.7153 21.8299L30.3788 24.4933ZM26.0985 24.4933L23.2049 26.9046L23.4241 27.1677L23.6872 27.3869L26.0985 24.4933ZM42.7065 8.66936V12.436C43.0945 12.436 43.2959 12.4964 43.3775 12.5292C43.4433 12.5557 43.4788 12.5812 43.523 12.631L46.3382 10.1285L49.1534 7.62611C47.4341 5.69185 45.1087 4.90271 42.7065 4.90271V8.66936ZM46.3382 10.1285L43.523 12.631C43.6346 12.7565 43.8686 13.0854 43.8686 14.0197H47.6353H51.4019C51.4019 11.7114 50.7713 9.44615 49.1534 7.62611L46.3382 10.1285ZM47.6353 14.0197H43.8686V24.2015H47.6353H51.4019V14.0197H47.6353ZM47.6353 24.2015H43.8686C43.8686 23.8041 43.9459 23.3776 44.1245 22.9609C44.3012 22.5486 44.5419 22.2274 44.7773 21.992L47.4407 24.6554L50.1041 27.3188C50.8927 26.5303 51.4019 25.4386 51.4019 24.2015H47.6353ZM47.4407 24.6554L44.7773 21.992C45.09 21.6793 45.4727 21.4266 45.9021 21.2614C46.3225 21.0998 46.7112 21.0509 47.0192 21.0509V24.8176V28.5842C48.0481 28.5842 49.1946 28.2284 50.1041 27.3188L47.4407 24.6554ZM47.0192 24.8176V21.0509H43.6144V24.8176V28.5842H47.0192V24.8176ZM43.6144 24.8176V21.0509C44.2993 21.0509 45.0069 21.291 45.5718 21.7618L43.1605 24.6554L40.7491 27.549C41.5734 28.236 42.5836 28.5842 43.6144 28.5842V24.8176ZM43.1605 24.6554L46.0541 22.2441C46.5248 22.809 46.765 23.5165 46.765 24.2015H42.9983H39.2317C39.2317 25.2322 39.5799 26.2425 40.2669 27.0668L43.1605 24.6554ZM42.9983 24.2015H46.765V14.7006H42.9983H39.2317V24.2015H42.9983ZM42.9983 14.7006H46.765C46.765 13.3935 46.4179 11.8328 45.2224 10.5626L42.4795 13.1442L39.7367 15.7257C39.5047 15.4792 39.3669 15.2148 39.2953 15C39.2286 14.8 39.2317 14.6825 39.2317 14.7006H42.9983ZM42.4795 13.1442L45.3039 10.6521C44.156 9.35113 42.617 8.82627 41.1501 8.82627V12.5929V16.3596C41.0197 16.3596 40.7685 16.3375 40.4613 16.2101C40.1414 16.0775 39.8639 15.8729 39.6551 15.6362L42.4795 13.1442ZM41.1501 12.5929V8.82627H40.3718V12.5929V16.3596H41.1501V12.5929ZM40.3718 12.5929V8.82627C38.6876 8.82627 37.0138 9.4465 35.7785 10.8671L38.6208 13.3387L41.4631 15.8103C41.3199 15.9751 41.1123 16.1368 40.8588 16.2448C40.6159 16.3482 40.4319 16.3596 40.3718 16.3596V12.5929ZM38.6208 13.3387L35.8337 10.805C34.627 12.1324 34.2057 13.7538 34.2057 15.2519H37.9723H41.7389C41.7389 15.1881 41.7478 15.247 41.7017 15.3829C41.6516 15.5307 41.5566 15.7089 41.4079 15.8724L38.6208 13.3387ZM37.9723 15.2519H34.2057V24.2015H37.9723H41.7389V15.2519H37.9723ZM37.9723 24.2015H34.2057C34.2057 23.804 34.283 23.3776 34.4616 22.9609C34.6383 22.5485 34.879 22.2274 35.1143 21.992L37.7777 24.6554L40.4412 27.3188C41.2297 26.5303 41.7389 25.4387 41.7389 24.2015H37.9723ZM37.7777 24.6554L35.1143 21.992C35.427 21.6793 35.8098 21.4266 36.2391 21.2614C36.6595 21.0998 37.0483 21.0509 37.3562 21.0509V24.8176V28.5842C38.3851 28.5842 39.5316 28.2284 40.4412 27.3188L37.7777 24.6554ZM37.3562 24.8176V21.0509H33.9515V24.8176V28.5842H37.3562V24.8176ZM33.9515 24.8176V21.0509C34.6364 21.0509 35.3439 21.291 35.9088 21.7618L33.4975 24.6554L31.0861 27.549C31.9105 28.236 32.9207 28.5842 33.9515 28.5842V24.8176ZM33.4975 24.6554L36.3911 22.2441C36.8619 22.809 37.102 23.5166 37.102 24.2015H33.3354H29.5687C29.5687 25.2322 29.9169 26.2424 30.6039 27.0668L33.4975 24.6554ZM33.3354 24.2015H37.102V9.60971H33.3354H29.5687V24.2015H33.3354ZM33.3354 9.60971H37.102C37.102 9.91762 37.0532 10.3064 36.8915 10.7268C36.7263 11.1561 36.4736 11.5389 36.1609 11.8516L33.4975 9.18817L30.8341 6.52475C29.9245 7.43431 29.5687 8.58083 29.5687 9.60971H33.3354ZM33.4975 9.18817L36.1609 11.8516C35.9255 12.087 35.6044 12.3276 35.192 12.5043C34.7753 12.6829 34.3489 12.7603 33.9515 12.7603V8.99362V5.22697C32.7142 5.22697 31.6226 5.73622 30.8341 6.52476L33.4975 9.18817ZM33.9515 8.99362V12.7603H36.9995V8.99362V5.22697H33.9515V8.99362ZM36.9995 8.99362V12.7603C36.6053 12.7603 36.1361 12.6837 35.6561 12.4622C35.1737 12.2395 34.7984 11.9247 34.5274 11.5995L37.4211 9.18817L40.3147 6.77683C39.4711 5.76457 38.259 5.22697 36.9995 5.22697V8.99362ZM37.4211 9.18817L35.0097 12.0818C34.6845 11.8108 34.3697 11.4355 34.147 10.9531C33.9255 10.4732 33.849 10.0039 33.849 9.60971H37.6156H41.3823C41.3823 8.35025 40.8447 7.13811 39.8324 6.29456L37.4211 9.18817ZM37.6156 9.60971H33.849V10.9716H37.6156H41.3823V9.60971H37.6156ZM37.6156 10.9716L40.9223 12.7753C40.9428 12.7377 40.9727 12.6818 41.1312 12.5958L39.3342 9.28545L37.5372 5.97513C36.1824 6.71054 35.0666 7.77878 34.3089 9.16794L37.6156 10.9716ZM39.3342 9.28545L41.1312 12.5958C41.2446 12.5342 41.4916 12.436 41.9931 12.436V8.66936V4.90271C40.4626 4.90271 38.937 5.21521 37.5372 5.97512L39.3342 9.28545ZM41.9931 8.66936V12.436H42.7065V8.66936V4.90271H41.9931V8.66936ZM55.0877 25.1418V21.3752C53.6135 21.3752 52.9624 21.082 52.7309 20.9246L50.6129 24.0393L48.4949 27.1541C50.4251 28.4666 52.7572 28.9085 55.0877 28.9085V25.1418ZM50.6129 24.0393L52.7729 20.9536C52.6529 20.8696 52.6186 20.8145 52.6044 20.7899C52.5875 20.7604 52.5351 20.6593 52.5089 20.4196L48.7646 20.8291L45.0203 21.2387C45.2822 23.6336 46.4291 25.7085 48.4529 27.1251L50.6129 24.0393ZM48.7646 20.8291H52.5312V20.7643H48.7646H44.998V20.8291H48.7646ZM48.7646 20.7643H52.5312C52.5312 21.1584 52.4547 21.6277 52.2332 22.1076C52.0105 22.5901 51.6957 22.9654 51.3705 23.2364L48.9592 20.3427L46.5478 17.4491C45.5355 18.2927 44.998 19.5049 44.998 20.7643H48.7646ZM48.9592 20.3427L51.6226 23.0062C51.3872 23.2415 51.066 23.4822 50.6537 23.6589C50.237 23.8375 49.8106 23.9148 49.4131 23.9148V20.1482V16.3815C48.1759 16.3815 47.0843 16.8908 46.2957 17.6793L48.9592 20.3427ZM49.4131 20.1482V23.9148H52.3639V20.1482V16.3815H49.4131V20.1482ZM52.3639 20.1482V23.9148C51.6616 23.9148 50.8677 23.6705 50.2182 23.0931C49.6419 22.5809 49.4259 22.0257 49.3524 21.7905L52.9476 20.667L56.5428 19.5435C56.3612 18.9624 55.9938 18.1478 55.223 17.4627C54.3789 16.7124 53.3472 16.3815 52.3639 16.3815V20.1482ZM52.9476 20.667L49.2756 21.5063C49.596 22.908 50.461 24.0829 51.7282 24.7983C52.847 25.4298 54.034 25.5686 54.958 25.5686V21.8019V18.0353C54.7146 18.0353 54.9829 17.9849 55.4315 18.2381C55.6816 18.3793 55.9585 18.6002 56.1942 18.9174C56.4293 19.234 56.5579 19.5583 56.6195 19.8277L52.9476 20.667ZM54.958 21.8019V25.5686H55.9632V21.8019V18.0353H54.958V21.8019ZM55.9632 21.8019V25.5686C57.1028 25.5686 58.6313 25.388 59.9609 24.4484C61.5302 23.3394 62.1618 21.6624 62.1618 20.0833H58.3952H54.6285C54.6285 19.9268 54.657 19.6088 54.8365 19.2283C55.0251 18.8284 55.3099 18.5106 55.6134 18.2962C56.1323 17.9295 56.4449 18.0353 55.9632 18.0353V21.8019ZM58.3952 20.0833H62.1618C62.1618 18.3725 61.3661 16.6728 59.6663 15.6887L57.7791 18.9484L55.8918 22.2082C55.5607 22.0165 55.1922 21.689 54.9308 21.2075C54.6783 20.7424 54.6285 20.3234 54.6285 20.0833H58.3952ZM57.7791 18.9484L59.6663 15.6887C58.564 15.0505 57.3035 14.8197 56.2826 14.715L55.8983 18.462L55.514 22.209C55.8011 22.2385 55.9738 22.2734 56.0577 22.2952C56.097 22.3053 56.1004 22.3084 56.0759 22.2989C56.052 22.2897 55.9858 22.2626 55.8918 22.2082L57.7791 18.9484ZM55.8983 18.462L56.3194 14.719C54.713 14.5383 53.665 14.3077 53.0501 14.0938L51.8127 17.6514L50.5752 21.209C51.9492 21.6869 53.6249 21.9967 55.4772 22.2051L55.8983 18.462ZM51.8127 17.6514L53.0745 14.1024C52.5841 13.928 52.6031 13.817 52.7233 13.983L49.6725 16.1922L46.6218 18.4014C47.6499 19.8212 49.0956 20.683 50.5508 21.2004L51.8127 17.6514ZM49.6725 16.1922L52.8066 14.1029C52.9105 14.2588 52.7907 14.2061 52.7907 13.6305H49.024H45.2574C45.2574 15.1735 45.5699 16.8286 46.5385 18.2816L49.6725 16.1922ZM49.024 13.6305H52.7907C52.7907 13.2639 52.8544 13.1102 52.8692 13.0784C52.8777 13.0602 52.8844 13.0506 52.8917 13.0417C52.8997 13.0321 52.9226 13.0063 52.975 12.9678L50.7426 9.93397L48.5102 6.90018C46.255 8.55962 45.2574 11.0034 45.2574 13.6305H49.024ZM50.7426 9.93397L52.975 12.9678C53.2675 12.7525 53.9472 12.436 55.412 12.436V8.66936V4.90271C52.9423 4.90271 50.5091 5.42925 48.5102 6.90018L50.7426 9.93397ZM55.412 8.66936V12.436H55.7686V8.66936V4.90271H55.412V8.66936ZM55.7686 8.66936V12.436C57.2602 12.436 57.929 12.7249 58.1686 12.8831L60.2434 9.73942L62.3183 6.59574C60.3962 5.32717 58.0818 4.90271 55.7686 4.90271V8.66936ZM60.2434 9.73942L58.1686 12.8831C58.2745 12.9529 58.2958 12.993 58.3003 13.0005C58.3082 13.0134 58.3585 13.0984 58.3875 13.3268L62.1242 12.8523L65.8608 12.3778C65.559 10.001 64.3765 7.95421 62.3183 6.59574L60.2434 9.73942ZM62.1242 12.8523H58.3575V12.9172H62.1242H65.8908V12.8523H62.1242ZM62.1242 12.9172H58.3575C58.3575 12.5197 58.4348 12.0933 58.6134 11.6766C58.7902 11.2642 59.0308 10.9431 59.2662 10.7077L61.9296 13.3711L64.593 16.0346C65.3815 15.2461 65.8908 14.1545 65.8908 12.9172H62.1242ZM61.9296 13.3711L59.5183 10.4775C60.0832 10.0068 60.7907 9.76663 61.4756 9.76663V13.5333V17.2999C62.5064 17.2999 63.5166 16.9517 64.3409 16.2648L61.9296 13.3711ZM61.4756 13.5333V9.76663H58.5249V13.5333V17.2999H61.4756V13.5333ZM58.5249 13.5333V9.76663C59.1624 9.76663 59.9247 9.97235 60.5795 10.518C61.1773 11.0162 61.4221 11.5784 61.5145 11.8558L57.9412 13.0469L54.3678 14.238C54.5684 14.8396 54.9644 15.645 55.7568 16.3053C56.6062 17.0131 57.6063 17.2999 58.5249 17.2999V13.5333ZM57.9412 13.0469L61.5671 12.0271C61.1398 10.5077 60.0888 9.44926 58.8755 8.86978C57.801 8.35661 56.6736 8.2426 55.7686 8.2426V12.0092V15.7759C56.1175 15.7759 55.979 15.8348 55.6288 15.6675C55.4258 15.5706 55.1442 15.3929 54.8759 15.0899C54.6001 14.7783 54.4145 14.4198 54.3152 14.0667L57.9412 13.0469ZM55.7686 12.0092V8.2426H55.5092V12.0092V15.7759H55.7686V12.0092ZM55.5092 12.0092V8.2426C54.4819 8.2426 53.0507 8.39357 51.7797 9.2472C50.2427 10.2795 49.57 11.8967 49.57 13.4684H53.3367H57.1033C57.1033 13.6943 57.0597 14.0748 56.8464 14.5045C56.6252 14.9504 56.3026 15.2841 55.9799 15.5009C55.4332 15.8681 55.0882 15.7759 55.5092 15.7759V12.0092ZM53.3367 13.4684H49.57C49.57 14.2148 49.7243 15.1256 50.2527 16.0062C50.7978 16.9147 51.581 17.5234 52.3906 17.8832L53.9204 14.4412L55.4501 10.9992C55.8706 11.1861 56.3619 11.5462 56.7125 12.1304C57.0463 12.6868 57.1033 13.1976 57.1033 13.4684H53.3367ZM53.9204 14.4412L52.4587 17.9127C53.425 18.3195 54.6925 18.5103 55.7909 18.637L56.2226 14.8952L56.6544 11.1534C56.1521 11.0954 55.7854 11.0387 55.5327 10.9889C55.4081 10.9643 55.332 10.9455 55.2948 10.9352C55.2516 10.9234 55.2908 10.9313 55.382 10.9697L53.9204 14.4412ZM56.2226 14.8952L55.8753 18.6458C58.0165 18.844 58.7774 19.2611 58.8948 19.353L61.2162 16.3868L63.5376 13.4205C61.6663 11.956 59.098 11.3787 56.5699 11.1446L56.2226 14.8952ZM61.2162 16.3868L58.9354 19.3844C58.9371 19.3857 58.923 19.3747 58.9047 19.3513C58.8864 19.328 58.8789 19.3114 58.8796 19.313C58.8816 19.3175 58.9412 19.4574 58.9412 19.8239H62.7078H66.4745C66.4745 17.4116 65.6423 15.0215 63.497 13.3892L61.2162 16.3868ZM62.7078 19.8239H58.9412C58.9412 20.2759 58.8632 20.4913 58.8282 20.5668C58.8027 20.622 58.7698 20.6757 58.6601 20.7546L60.8595 23.8123L63.059 26.8701C65.4498 25.1504 66.4745 22.5762 66.4745 19.8239H62.7078ZM60.8595 23.8123L58.6344 20.7732C58.2981 21.0194 57.5022 21.3752 55.8011 21.3752V25.1418V28.9085C58.4234 28.9085 60.9998 28.3779 63.0846 26.8515L60.8595 23.8123ZM55.8011 25.1418V21.3752H55.0877V25.1418V28.9085H55.8011V25.1418ZM64.109 9.60971H67.8756C67.8756 9.91769 67.8268 10.3065 67.6651 10.7268C67.4999 11.1562 67.2472 11.5389 66.9345 11.8516L64.2711 9.18817L61.6077 6.52475C60.6982 7.43423 60.3423 8.58069 60.3423 9.60971H64.109ZM64.2711 9.18817L66.9345 11.8516C66.6992 12.0869 66.378 12.3276 65.9657 12.5043C65.5489 12.6829 65.1225 12.7603 64.7251 12.7603V8.99362V5.22697C63.4878 5.22697 62.3962 5.73624 61.6077 6.52476L64.2711 9.18817ZM64.7251 8.99362V12.7603H68.1298V8.99362V5.22697H64.7251V8.99362ZM68.1298 8.99362V12.7603C67.7356 12.7603 67.2664 12.6837 66.7865 12.4622C66.304 12.2395 65.9287 11.9247 65.6577 11.5995L68.5514 9.18817L71.445 6.77683C70.6014 5.76456 69.3893 5.22697 68.1298 5.22697V8.99362ZM68.5514 9.18817L66.14 12.0818C65.8149 11.8108 65.5 11.4356 65.2774 10.9532C65.0558 10.4732 64.9793 10.004 64.9793 9.60971H68.7459H72.5126C72.5126 8.35012 71.9749 7.13803 70.9627 6.29456L68.5514 9.18817ZM68.7459 9.60971H64.9793V24.2015H68.7459H72.5126V9.60971H68.7459ZM68.7459 24.2015H64.9793C64.9793 23.804 65.0566 23.3775 65.2352 22.9608C65.412 22.5485 65.6526 22.2273 65.8879 21.992L68.5514 24.6554L71.2148 27.3188C72.0032 26.5304 72.5126 25.4388 72.5126 24.2015H68.7459ZM68.5514 24.6554L65.8879 21.992C66.2007 21.6793 66.5834 21.4266 67.0127 21.2614C67.4331 21.0998 67.8219 21.0509 68.1298 21.0509V24.8176V28.5842C69.1588 28.5842 70.3052 28.2284 71.2148 27.3188L68.5514 24.6554ZM68.1298 24.8176V21.0509H64.7251V24.8176V28.5842H68.1298V24.8176ZM64.7251 24.8176V21.0509C65.41 21.0509 66.1176 21.2911 66.6825 21.7618L64.2711 24.6554L61.8598 27.549C62.6841 28.236 63.6943 28.5842 64.7251 28.5842V24.8176ZM64.2711 24.6554L67.1647 22.2441C67.6354 22.8089 67.8756 23.5165 67.8756 24.2015H64.109H60.3423C60.3423 25.2323 60.6906 26.2425 61.3775 27.0668L64.2711 24.6554ZM64.109 24.2015H67.8756V9.60971H64.109H60.3423V24.2015H64.109ZM79.9297 21.0561V24.8228C79.5355 24.8228 79.0662 24.7462 78.5863 24.5247C78.1038 24.302 77.7286 23.9872 77.4576 23.662L80.3512 21.2507L83.2448 18.8393C82.4013 17.8271 81.1891 17.2895 79.9297 17.2895V21.0561ZM80.3512 21.2507L77.9398 24.1443C77.6147 23.8733 77.2999 23.4981 77.0772 23.0156C76.8557 22.5357 76.7791 22.0664 76.7791 21.6722H80.5458H84.3124C84.3124 20.4127 83.7748 19.2006 82.7625 18.3571L80.3512 21.2507ZM80.5458 21.6722H76.7791V24.5257H80.5458H84.3124V21.6722H80.5458ZM80.5458 24.5257H76.7791C76.7791 24.1315 76.8557 23.6622 77.0772 23.1823C77.2999 22.6999 77.6147 22.3246 77.9398 22.0536L80.3512 24.9473L82.7625 27.8409C83.7748 26.9973 84.3124 25.7852 84.3124 24.5257H80.5458ZM80.3512 24.9473L77.4576 22.5359C77.7286 22.2107 78.1039 21.8959 78.5863 21.6732C79.0662 21.4517 79.5355 21.3752 79.9297 21.3752V25.1418V28.9085C81.1891 28.9085 82.4012 28.3709 83.2448 27.3586L80.3512 24.9473ZM79.9297 25.1418V21.3752H77.822V25.1418V28.9085H79.9297V25.1418ZM77.822 25.1418V21.3752C77.0418 21.3752 76.5307 21.2943 76.2241 21.208C75.9261 21.1241 75.9132 21.062 76.0049 21.147L73.4444 23.9096L70.884 26.6722C72.8094 28.4567 75.4432 28.9085 77.822 28.9085V25.1418ZM73.4444 23.9096L76.0049 21.147C76.0341 21.1742 76.0209 21.1832 75.9881 21.0928C75.9478 20.9817 75.8816 20.7223 75.8816 20.2455H72.115H68.3483C68.3483 22.5416 68.9917 24.9184 70.884 26.6722L73.4444 23.9096ZM72.115 20.2455H75.8816V12.4956H72.115H68.3483V20.2455H72.115ZM72.115 12.4956V8.72899H70.8179V12.4956V16.2623H72.115V12.4956ZM70.8179 12.4956V8.72899C71.3041 8.72899 71.8975 8.86137 72.4533 9.23189L70.364 12.3659L68.2746 15.5C69.0898 16.0434 69.9859 16.2623 70.8179 16.2623V12.4956ZM70.364 12.3659L73.0274 9.70252C73.4899 10.165 73.9685 10.963 73.9685 12.0092H70.2018H66.4352C66.4352 13.3148 67.0219 14.3507 67.7005 15.0293L70.364 12.3659ZM70.2018 12.0092H73.9685V11.7174H70.2018H66.4352V12.0092H70.2018ZM70.2018 11.7174H73.9685C73.9685 12.1683 73.8532 13.1983 72.9625 14.089L70.2991 11.4256L67.6357 8.76215C66.6153 9.78254 66.4352 11.0071 66.4352 11.7174H70.2018ZM70.2991 11.4256L73.3172 13.6791L75.1331 11.2472L72.115 8.99362L69.0968 6.74008L67.281 9.17203L70.2991 11.4256ZM72.115 8.99362L75.2392 11.0977L78.4494 6.33103L75.3252 4.22698L72.201 2.12293L68.9908 6.88957L72.115 8.99362ZM75.3252 4.22698L78.3902 6.41631C78.1233 6.78997 77.7311 7.16229 77.2042 7.42572C76.6835 7.68608 76.1787 7.76664 75.7791 7.76664V4V0.233357C74.4345 0.233357 73.113 0.843682 72.2601 2.03766L75.3252 4.22698ZM75.7791 4V7.76664H76.1358V4V0.233357H75.7791V4ZM76.1358 4V7.76664C75.7416 7.76664 75.2724 7.6901 74.7924 7.46859C74.31 7.24592 73.9347 6.93107 73.6637 6.60591L76.5573 4.19456L79.451 1.78321C78.6074 0.77095 77.3953 0.233357 76.1358 0.233357V4ZM76.5573 4.19456L74.146 7.08817C73.8208 6.81719 73.506 6.44189 73.2833 5.95942C73.0618 5.47949 72.9853 5.01024 72.9853 4.6161H76.7519H80.5185C80.5185 3.3567 79.981 2.14453 78.9687 1.30094L76.5573 4.19456ZM76.7519 4.6161H72.9853V8.99362H76.7519H80.5185V4.6161H76.7519ZM76.7519 8.99362V12.7603H79.4433V8.99362V5.22697H76.7519V8.99362ZM79.4433 8.99362V12.7603C79.0491 12.7603 78.5798 12.6837 78.0999 12.4622C77.6175 12.2395 77.2422 11.9247 76.9712 11.5995L79.8648 9.18817L82.7584 6.77683C81.9149 5.76456 80.7027 5.22697 79.4433 5.22697V8.99362ZM79.8648 9.18817L77.4535 12.0818C77.1283 11.8108 76.8134 11.4355 76.5907 10.953C76.3692 10.473 76.2927 10.0038 76.2927 9.60971H80.0594H83.826C83.826 8.35042 83.2885 7.13821 82.2762 6.29456L79.8648 9.18817ZM80.0594 9.60971H76.2927V11.8795H80.0594H83.826V9.60971H80.0594ZM80.0594 11.8795H76.2927C76.2927 11.4822 76.37 11.0558 76.5486 10.6391C76.7253 10.2267 76.966 9.90548 77.2014 9.67009L79.8648 12.3335L82.5282 14.9969C83.3169 14.2083 83.826 13.1166 83.826 11.8795H80.0594ZM79.8648 12.3335L77.2014 9.67009C77.5141 9.35735 77.8969 9.10465 78.3262 8.93952C78.7466 8.77784 79.1354 8.72899 79.4433 8.72899V12.4956V16.2623C80.4722 16.2623 81.6187 15.9065 82.5282 14.9969L79.8648 12.3335ZM79.4433 12.4956V8.72899H76.7519V12.4956V16.2623H79.4433V12.4956ZM76.7519 12.4956H72.9853V18.9809H76.7519H80.5185V12.4956H76.7519ZM76.7519 18.9809H72.9853C72.9853 20.3771 73.3925 22.2302 75.034 23.5261L77.368 20.5697L79.702 17.6134C80.0693 17.9034 80.2988 18.2606 80.4178 18.5675C80.5249 18.8438 80.5185 19.0128 80.5185 18.9809H76.7519ZM77.368 20.5697L75.034 23.5261C76.38 24.5887 77.9619 24.8228 79.1839 24.8228V21.0561V17.2895C79.0271 17.2895 79.0159 17.2724 79.1046 17.2961C79.2009 17.3219 79.4341 17.4019 79.702 17.6134L77.368 20.5697ZM79.1839 21.0561V24.8228H79.9297V21.0561V17.2895H79.1839V21.0561ZM85.0841 19.143H81.3175C81.3175 20.4665 81.5823 22.1611 82.7614 23.5623C84.0453 25.0881 85.8082 25.5686 87.3215 25.5686V21.8019V18.0353C87.3215 18.0353 87.3221 18.0353 87.3232 18.0353C87.3243 18.0353 87.326 18.0354 87.3282 18.0354C87.3326 18.0356 87.3392 18.036 87.3481 18.0367C87.3657 18.0381 87.3925 18.0409 87.4276 18.0469C87.4979 18.0588 87.6026 18.0834 87.7299 18.1339C88.0066 18.2435 88.2947 18.4377 88.5255 18.712C88.9589 19.227 88.8508 19.5921 88.8508 19.143H85.0841ZM87.3215 21.8019V25.5686H88.7159V21.8019V18.0353H87.3215V21.8019ZM88.7159 21.8019V25.5686C89.6424 25.5686 90.7941 25.3936 91.8739 24.7138C93.0299 23.9859 93.7443 22.9052 94.0804 21.7623L90.4669 20.6994L86.8533 19.6366C86.9733 19.2287 87.2877 18.6992 87.8601 18.3388C88.1084 18.1825 88.3317 18.1062 88.4832 18.0699C88.5582 18.052 88.6168 18.0435 88.6549 18.0394C88.6929 18.0353 88.7141 18.0353 88.7159 18.0353V21.8019ZM90.4669 20.6994L94.0402 21.8906C93.9478 22.1679 93.703 22.7301 93.1051 23.2283C92.4503 23.774 91.6881 23.9797 91.0505 23.9797V20.213V16.4464C90.132 16.4464 89.1319 16.7332 88.2826 17.441C87.4901 18.1013 87.094 18.9067 86.8935 19.5083L90.4669 20.6994ZM91.0505 20.213V23.9797H94.1959V20.213V16.4464H91.0505V20.213ZM94.1959 20.213V23.9797C93.8686 23.9797 93.4764 23.9237 93.0645 23.7589C92.6482 23.5924 92.2962 23.3483 92.0188 23.071L94.6823 20.4076L97.3457 17.7442C96.4634 16.8619 95.3221 16.4464 94.1959 16.4464V20.213ZM94.6823 20.4076L92.0188 23.071C91.7012 22.7534 91.418 22.3314 91.2467 21.8176C91.078 21.3114 91.0601 20.8438 91.1008 20.478L94.8444 20.894L98.588 21.3099C98.7262 20.0661 98.3451 18.7436 97.3457 17.7442L94.6823 20.4076ZM94.8444 20.894L91.1119 20.3879C91.087 20.5715 91.0537 20.6893 90.7591 20.8972L92.9312 23.9745L95.1034 27.0517C97.0138 25.7032 98.2559 23.7673 98.5769 21.4001L94.8444 20.894ZM92.9312 23.9745L90.7304 20.9177C90.4353 21.1302 89.8871 21.3752 88.8131 21.3752V25.1418V28.9085C91.0683 28.9085 93.2655 28.3752 95.1321 27.0312L92.9312 23.9745ZM88.8131 25.1418V21.3752H87.127V25.1418V28.9085H88.8131V25.1418ZM87.127 25.1418V21.3752C85.8455 21.3752 85.2099 21.0441 84.8366 20.7108L82.3279 23.5205L79.8193 26.3302C81.8671 28.1586 84.4309 28.9085 87.127 28.9085V25.1418ZM82.3279 23.5205L84.889 20.7585C84.5451 20.4397 84.3111 20.041 84.3111 19.2078H80.5445H76.7778C76.7778 21.9199 77.7328 24.3964 79.7668 26.2825L82.3279 23.5205ZM80.5445 19.2078H84.3111V15.0573H80.5445H76.7778V19.2078H80.5445ZM80.5445 15.0573H84.3111C84.3111 14.3611 84.4559 13.892 84.6478 13.5467L81.3551 11.7174L78.0625 9.88817C77.1735 11.4884 76.7778 13.2458 76.7778 15.0573H80.5445ZM81.3551 11.7174L84.6165 13.6018C84.8213 13.2473 85.0731 13.0068 85.4321 12.8195L83.6898 9.48001L81.9475 6.14056C80.3177 6.99088 79.0131 8.24191 78.0937 9.83304L81.3551 11.7174ZM83.6898 9.48001L85.4587 12.8055C85.8553 12.5945 86.3993 12.436 87.1918 12.436V8.66936V4.90271C85.347 4.90271 83.5564 5.28462 81.921 6.15454L83.6898 9.48001ZM87.1918 8.66936V12.436H88.4889V8.66936V4.90271H87.1918V8.66936ZM88.4889 8.66936V12.436C89.6826 12.436 90.228 12.7579 90.5522 13.0761L93.1907 10.3879L95.8291 7.69975C93.8186 5.72654 91.2295 4.90271 88.4889 4.90271V8.66936ZM93.1907 10.3879L90.578 13.1011C90.8797 13.3917 91.175 13.8559 91.175 14.9276H94.9417H98.7083C98.7083 12.1946 97.8363 9.63243 95.8034 7.67475L93.1907 10.3879ZM94.9417 14.9276H91.175C91.175 15.1263 91.1652 15.2767 91.1528 15.385C91.1403 15.4941 91.1269 15.5455 91.1254 15.5512C91.1197 15.5715 91.1851 15.3168 91.4764 15.0128L94.1959 17.619L96.9153 20.2251C98.444 18.63 98.7083 16.4867 98.7083 14.9276H94.9417ZM94.1959 17.619L91.4764 15.0128C91.7707 14.7057 92.0442 14.6118 92.0877 14.5986C92.1087 14.5922 92.0857 14.6012 92.0057 14.6113C91.9261 14.6213 91.8046 14.6305 91.6342 14.6305V18.3972V22.1638C93.2057 22.1638 95.3509 21.8575 96.9153 20.2251L94.1959 17.619ZM91.6342 18.3972V14.6305H85.0841V18.3972V22.1638H91.6342V18.3972ZM85.0841 18.3972H81.3175V19.143H85.0841H88.8508V18.3972H85.0841ZM87.5161 12.1389V8.3723C85.8496 8.3723 84.0102 8.94262 82.7146 10.5792L85.6678 12.9172L88.621 15.2551C88.4284 15.4984 88.17 15.6911 87.8996 15.805C87.6521 15.9092 87.4957 15.9056 87.5161 15.9056V12.1389ZM85.6678 12.9172L82.7016 10.5958C81.5892 12.0171 81.3175 13.7036 81.3175 15.0897H85.0841H88.8508C88.8508 14.8603 88.8754 14.782 88.8677 14.8105C88.8579 14.8469 88.8041 15.0213 88.6341 15.2386L85.6678 12.9172ZM85.0841 15.0897H81.3175V15.3816H85.0841H88.8508V15.0897H85.0841ZM85.0841 15.3816V19.1482H90.5966V15.3816V11.6149H85.0841V15.3816ZM90.5966 15.3816H94.3632V15.0897H90.5966H86.8299V15.3816H90.5966ZM90.5966 15.0897H94.3632C94.3632 13.6517 94.0654 11.8143 92.7351 10.351L89.948 12.8847L87.161 15.4185C86.9272 15.1614 86.843 14.9306 86.8208 14.8555C86.8024 14.7929 86.8299 14.8514 86.8299 15.0897H90.5966ZM89.948 12.8847L92.852 10.4858C91.5984 8.96832 89.8607 8.3723 88.197 8.3723V12.1389V15.9056C88.164 15.9056 87.9819 15.8997 87.7262 15.7908C87.4542 15.6749 87.2159 15.4917 87.0441 15.2837L89.948 12.8847ZM88.197 12.1389V8.3723H87.5161V12.1389V15.9056H88.197V12.1389ZM96.1361 20.5697H99.9028C99.9028 20.8776 99.8539 21.2664 99.6922 21.6868C99.5271 22.1161 99.2744 22.4989 98.9617 22.8116L96.2982 20.1482L93.6348 17.4848C92.7252 18.3943 92.3695 19.5409 92.3695 20.5697H96.1361ZM96.2982 20.1482L98.9617 22.8116C98.7262 23.047 98.405 23.2877 97.9927 23.4644C97.576 23.643 97.1496 23.7203 96.7522 23.7203V19.9536V16.187C95.5151 16.187 94.4234 16.6962 93.6348 17.4848L96.2982 20.1482ZM96.7522 19.9536V23.7203H100.384V19.9536V16.187H96.7522V19.9536ZM100.384 19.9536V23.7203C99.9897 23.7203 99.5205 23.6437 99.0405 23.4222C98.5581 23.1995 98.1828 22.8847 97.9119 22.5595L100.805 20.1482L103.699 17.7368C102.856 16.7246 101.643 16.187 100.384 16.187V19.9536ZM100.805 20.1482L98.3941 23.0418C98.069 22.7708 97.7541 22.3956 97.5314 21.9131C97.3099 21.4332 97.2334 20.9639 97.2334 20.5697H101H104.767C104.767 19.3102 104.229 18.0981 103.217 17.2546L100.805 20.1482ZM101 20.5697H97.2334V24.2015H101H104.767V20.5697H101ZM101 24.2015H97.2334C97.2334 23.804 97.3107 23.3776 97.4893 22.9608C97.666 22.5485 97.9067 22.2273 98.142 21.992L100.805 24.6554L103.469 27.3188C104.257 26.5304 104.767 25.4387 104.767 24.2015H101ZM100.805 24.6554L98.142 21.992C98.4547 21.6793 98.8375 21.4266 99.2668 21.2615C99.6872 21.0998 100.076 21.0509 100.384 21.0509V24.8176V28.5842C101.413 28.5842 102.559 28.2283 103.469 27.3188L100.805 24.6554ZM100.384 24.8176V21.0509H96.7522V24.8176V28.5842H100.384V24.8176ZM96.7522 24.8176V21.0509C97.437 21.0509 98.1446 21.291 98.7096 21.7618L96.2982 24.6554L93.8869 27.549C94.7113 28.236 95.7215 28.5842 96.7522 28.5842V24.8176ZM96.2982 24.6554L99.1919 22.2441C99.6626 22.809 99.9028 23.5166 99.9028 24.2015H96.1361H92.3695C92.3695 25.2322 92.7177 26.2424 93.4046 27.0668L96.2982 24.6554ZM96.1361 24.2015H99.9028V20.5697H96.1361H92.3695V24.2015H96.1361ZM25.9364 9.44758H29.703C29.703 9.75552 29.6542 10.1443 29.4925 10.5647C29.3273 10.994 29.0746 11.3767 28.7619 11.6895L26.0985 9.02604L23.4351 6.36262C22.5256 7.27214 22.1697 8.41863 22.1697 9.44758H25.9364ZM26.0985 9.02604L28.7619 11.6895C28.5266 11.9248 28.2054 12.1655 27.793 12.3422C27.3763 12.5208 26.9499 12.5981 26.5525 12.5981V8.83149V5.06484C25.3153 5.06484 24.2236 5.57409 23.4351 6.36263L26.0985 9.02604ZM26.5525 8.83149V12.5981H29.9572V8.83149V5.06484H26.5525V8.83149ZM29.9572 8.83149V12.5981C29.5631 12.5981 29.0938 12.5216 28.6139 12.3001C28.1314 12.0774 27.7561 11.7626 27.4851 11.4374L30.3788 9.02604L33.2724 6.6147C32.4288 5.60242 31.2167 5.06484 29.9572 5.06484V8.83149ZM30.3788 9.02604L27.9674 11.9197C27.6423 11.6487 27.3274 11.2734 27.1047 10.791C26.8832 10.3111 26.8067 9.84178 26.8067 9.44758H30.5733H34.34C34.34 8.18808 33.8023 6.97595 32.7901 6.13243L30.3788 9.02604ZM30.5733 9.44758H26.8067V24.0393H30.5733H34.34V9.44758H30.5733ZM30.5733 24.0393H26.8067C26.8067 23.6419 26.884 23.2154 27.0626 22.7987C27.2393 22.3864 27.48 22.0652 27.7153 21.8299L30.3788 24.4933L33.0422 27.1567C33.8307 26.3682 34.34 25.2766 34.34 24.0393H30.5733ZM30.3788 24.4933L27.7153 21.8299C28.0281 21.5171 28.4108 21.2644 28.8402 21.0993C29.2606 20.9376 29.6493 20.8888 29.9572 20.8888V24.6554V28.4221C30.9861 28.4221 32.1326 28.0663 33.0422 27.1567L30.3788 24.4933ZM29.9572 24.6554V20.8888H26.5525V24.6554V28.4221H29.9572V24.6554ZM26.5525 24.6554V20.8888C27.2373 20.8888 27.9449 21.1289 28.5099 21.5997L26.0985 24.4933L23.6872 27.3869C24.5115 28.0739 25.5217 28.4221 26.5525 28.4221V24.6554ZM26.0985 24.4933L28.9921 22.0819C29.4629 22.6468 29.703 23.3544 29.703 24.0393H25.9364H22.1697C22.1697 25.0701 22.518 26.0803 23.2049 26.9046L26.0985 24.4933ZM25.9364 24.0393H29.703V9.44758H25.9364H22.1697V24.0393H25.9364Z" fill="black" mask="url(#path-1-outside-1_308_10831)"/>
<path d="M17.7283 5.42334C18.5162 4.63545 19.7938 4.63558 20.5818 5.42334L23.0603 7.90186C23.4364 8.27794 23.6311 8.76562 23.6482 9.2583C23.6558 9.3211 23.6619 9.38485 23.6619 9.44971V26.8687C23.6619 27.7395 22.9555 28.4458 22.0847 28.4458H4.66577C4.59887 28.4458 4.53321 28.4392 4.46851 28.4312C3.97722 28.4131 3.49101 28.2193 3.11597 27.8442L0.637451 25.3657C-0.150343 24.5778 -0.150452 23.3001 0.637451 22.5122C1.30232 21.8474 2.31487 21.7455 3.08862 22.2026V9.44971C3.08862 8.5789 3.79497 7.87256 4.66577 7.87256H17.4187C16.9626 7.09906 17.064 6.0878 17.7283 5.42334Z" fill="#001B1C"/>
<path d="M4.42108 5.19413C4.68075 4.93446 5.03295 4.78857 5.40018 4.78857H19.1879C19.9526 4.78857 20.5725 5.40851 20.5725 6.17323V23.9765C20.5725 24.7412 19.9526 25.3611 19.1879 25.3611H1.38466C0.619932 25.3611 0 24.7412 0 23.9765V10.1888C0 9.82152 0.145883 9.46933 0.405558 9.20965L4.42108 5.19413Z" fill="#1C1B1B"/>
<path d="M5.40039 4.82861H19.1875C19.9304 4.82861 20.5332 5.43046 20.5332 6.17334V23.9761C20.5332 24.719 19.9304 25.3218 19.1875 25.3218H1.38477C0.641888 25.3218 0.0400391 24.719 0.0400391 23.9761V10.189C0.0400391 9.83225 0.181372 9.49004 0.433594 9.23779L4.44922 5.22217C4.70147 4.96995 5.04367 4.82861 5.40039 4.82861Z" stroke="white" stroke-opacity="0.05" stroke-width="0.0791234" stroke-linejoin="round"/>
<path d="M7.16637 8.95068L15.3259 9.49465L16.4138 15.7503L13.966 18.4701H11.2461L8.52629 21.19L5.80644 21.734L5.53446 20.102L6.35041 18.4701L4.71851 13.5744L7.16637 8.95068Z" fill="#FFD87E"/>
<path fill-rule="evenodd" clip-rule="evenodd" d="M6.25438 9.62827C6.94266 8.76792 7.9847 8.26709 9.08648 8.26709H13.2839C15.132 8.26709 16.6845 9.65666 16.8886 11.4934L17.2167 14.4463C17.3186 15.3634 17.0672 16.2847 16.5135 17.0229L15.8649 17.8878C15.1799 18.8011 14.105 19.3385 12.9634 19.3385H10.9591L9.45107 21.3492C8.95839 22.0061 8.18518 22.3927 7.36404 22.3927H6.74361C5.64547 22.3927 4.75525 21.5025 4.75525 20.4044C4.75525 19.6512 5.18076 18.9627 5.85439 18.6259L5.88827 18.609L4.92298 17.6437C4.83859 17.5593 4.78266 17.4507 4.76304 17.3329L4.22369 14.0968C4.05426 13.0802 4.32531 12.0396 4.9691 11.2349L6.25438 9.62827ZM6.766 17.867L6.04901 17.15L8.10961 13.7157C8.27233 13.4445 8.18439 13.0927 7.91319 12.93C7.64199 12.7673 7.29022 12.8552 7.1275 13.1264L5.63708 15.6104L5.54162 15.0377L6.60366 12.9136C6.7451 12.6307 6.63044 12.2867 6.34756 12.1453C6.06468 12.0038 5.7207 12.1185 5.57926 12.4014L5.53296 12.494C5.61854 12.3011 5.72913 12.1182 5.86344 11.9503L7.14873 10.3437C7.61965 9.75508 8.33263 9.41241 9.08648 9.41241H13.2839C14.5484 9.41241 15.6107 10.3632 15.7503 11.6199L16.0784 14.5728C16.1481 15.2003 15.976 15.8306 15.5972 16.3357L14.9486 17.2006C14.4799 17.8255 13.7445 18.1932 12.9634 18.1932H11.7726L13.8143 15.2765C13.9957 15.0175 13.9326 14.6604 13.6736 14.479C13.4145 14.2976 13.0574 14.3607 12.876 14.6197L10.209 18.4298L8.53481 20.662C8.25843 21.0306 7.82468 21.2474 7.36404 21.2474H6.74361C6.27801 21.2474 5.90057 20.87 5.90057 20.4044C5.90057 20.0851 6.08098 19.7932 6.36659 19.6504L7.11111 19.2781C7.20025 19.2335 7.27621 19.1664 7.33149 19.0835L10.3857 14.5022C10.5611 14.2391 10.49 13.8835 10.2268 13.7081C9.96372 13.5327 9.60815 13.6038 9.43271 13.867L6.766 17.867Z" fill="black"/>
<path d="M13.2837 8.05811C15.2381 8.05811 16.8803 9.52784 17.0962 11.4702L17.4243 14.4233C17.532 15.3932 17.2657 16.3673 16.6802 17.1479L16.0317 18.0132C15.3073 18.9789 14.1706 19.5474 12.9634 19.5474H11.063L9.61768 21.4741C9.08558 22.1836 8.25059 22.6011 7.36377 22.6011H6.74365C5.5304 22.6011 4.54661 21.618 4.54639 20.4048C4.54639 19.6557 4.92745 18.964 5.54639 18.562L4.77588 17.7915C4.66081 17.6765 4.58397 17.5282 4.55713 17.3677L4.01807 14.1313C3.83891 13.0564 4.12548 11.956 4.80615 11.105L6.09131 9.49756C6.81918 8.58782 7.92133 8.05812 9.08643 8.05811H13.2837ZM9.08643 9.62158C8.39606 9.6216 7.74332 9.93507 7.31201 10.4741L6.18506 11.8823C6.27176 11.8928 6.35832 11.9172 6.44092 11.9585C6.82689 12.1515 6.98351 12.6214 6.79053 13.0073L5.96045 14.6655L6.94873 13.019C7.17077 12.6491 7.65099 12.5295 8.021 12.7515C8.39056 12.9736 8.5103 13.4529 8.28857 13.8228L6.31104 17.1167L6.73291 17.5386L9.25928 13.7515C9.49862 13.3924 9.98327 13.2954 10.3423 13.5347C10.7014 13.774 10.7984 14.2587 10.5591 14.6177L7.50537 19.1997C7.42999 19.3127 7.32599 19.4036 7.20459 19.4644L6.45947 19.8374C6.24487 19.9449 6.10889 20.1647 6.10889 20.4048C6.10911 20.7549 6.39345 21.0386 6.74365 21.0386H7.36377C7.75872 21.0386 8.13071 20.8526 8.36768 20.5366L10.0376 18.3101L12.7046 14.5005C12.952 14.147 13.4399 14.0605 13.7935 14.3081C14.1468 14.5556 14.2324 15.0425 13.9849 15.396L12.1733 17.9849H12.9634C13.6787 17.9849 14.3525 17.6479 14.7817 17.0757L15.4302 16.2104C15.7771 15.7479 15.9344 15.1708 15.8706 14.5962L15.5425 11.6431C15.4146 10.492 14.4419 9.62158 13.2837 9.62158H9.08643Z" stroke="white" stroke-opacity="0.35" stroke-width="0.417393"/>
</svg>
