<svg width="65" height="65" viewBox="0 0 65 65" fill="none" xmlns="http://www.w3.org/2000/svg">
<path d="M48.4137 1.99561C50.5401 -0.130828 53.9884 -0.130828 56.1149 1.99561L62.8033 8.68408C63.8214 9.70213 64.3499 11.0232 64.3932 12.3569C64.4127 12.5223 64.4244 12.6903 64.4244 12.8608V59.8696C64.4243 62.2196 62.5195 64.1245 60.1696 64.1245H13.1617C12.9849 64.1245 12.8105 64.1123 12.6393 64.0913C11.3099 64.0451 9.99388 63.5162 8.97913 62.5015L2.29065 55.813C0.164414 53.6866 0.164438 50.2392 2.29065 48.1128C4.08454 46.3189 6.81888 46.0382 8.90686 47.271V12.8608C8.90707 10.511 10.8119 8.60596 13.1617 8.60596H47.569C46.34 6.51878 46.6216 3.78788 48.4137 1.99561Z" fill="#001B1C"/>
<path d="M12.5014 1.3762C13.2022 0.67543 14.1527 0.281738 15.1437 0.281738H52.3521C54.4158 0.281738 56.0888 1.95473 56.0888 4.01847V52.0634C56.0888 54.1271 54.4158 55.8001 52.3521 55.8001H4.30716C2.24342 55.8001 0.570435 54.1271 0.570435 52.0634V14.855C0.570435 13.864 0.964125 12.9135 1.6649 12.2127L12.5014 1.3762Z" fill="#1C1B1B"/>
<path d="M15.1437 0.388184H52.3517C54.3563 0.388184 55.9813 2.01348 55.9816 4.01807V52.063C55.9816 54.0678 54.3565 55.6929 52.3517 55.6929H4.30676C2.30217 55.6927 0.67688 54.0676 0.67688 52.063V14.855C0.676888 13.8924 1.05973 12.9693 1.74036 12.2886L12.5773 1.45166C13.258 0.771034 14.181 0.388191 15.1437 0.388184Z" stroke="white" stroke-opacity="0.05" stroke-width="0.213528" stroke-linejoin="round"/>
<path d="M19.9103 11.5132L41.9301 12.9812L44.8661 29.863L38.2601 37.203H30.9202L23.5802 44.5429L16.2403 46.0109L15.5063 41.607L17.7083 37.203L13.3043 23.9911L19.9103 11.5132Z" fill="#FFD87E"/>
<path fill-rule="evenodd" clip-rule="evenodd" d="M17.4491 13.3423C19.3065 11.0205 22.1186 9.66895 25.092 9.66895H36.4195C41.4068 9.66895 45.5966 13.4189 46.1474 18.3757L47.0328 26.3444C47.3077 28.8194 46.6291 31.3058 45.135 33.298L43.3846 35.632C41.536 38.0966 38.6352 39.5471 35.5544 39.5471H30.1455L26.0759 44.9731C24.7463 46.746 22.6597 47.7893 20.4437 47.7893H18.7693C15.8058 47.7893 13.4034 45.3869 13.4034 42.4234C13.4034 40.3909 14.5518 38.5328 16.3696 37.6239L16.4611 37.5782L13.8561 34.9732C13.6283 34.7455 13.4774 34.4523 13.4245 34.1346L11.9689 25.4013C11.5117 22.658 12.2432 19.8497 13.9805 17.678L17.4491 13.3423ZM18.8298 35.5759L16.8949 33.6409L22.4557 24.3729C22.8948 23.641 22.6575 22.6917 21.9256 22.2525C21.1938 21.8134 20.2445 22.0507 19.8054 22.7826L15.7832 29.4862L15.5256 27.9405L18.3917 22.2083C18.7734 21.4449 18.4639 20.5166 17.7006 20.1349C16.9372 19.7532 16.0089 20.0626 15.6272 20.826L15.5022 21.0759C15.7332 20.5554 16.0316 20.0619 16.3941 19.6088L19.8626 15.2731C21.1335 13.6845 23.0576 12.7598 25.092 12.7598H36.4195C39.832 12.7598 42.6986 15.3256 43.0755 18.7171L43.9609 26.6859C44.149 28.3792 43.6846 30.0804 42.6623 31.4435L40.9119 33.7775C39.6471 35.4638 37.6624 36.4562 35.5544 36.4562H32.341L37.8507 28.5851C38.3403 27.8859 38.1701 26.9222 37.471 26.4328C36.7718 25.9432 35.8081 26.1134 35.3187 26.8126L28.1212 37.0946L23.6032 43.1186C22.8573 44.1132 21.6868 44.6984 20.4437 44.6984H18.7693C17.5129 44.6984 16.4943 43.6799 16.4943 42.4234C16.4943 41.5617 16.9811 40.7739 17.7519 40.3886L19.7611 39.3839C20.0017 39.2635 20.2067 39.0826 20.3559 38.8588L28.598 26.4955C29.0715 25.7854 28.8797 24.8258 28.1694 24.3525C27.4593 23.879 26.4998 24.0708 26.0263 24.7811L18.8298 35.5759Z" fill="black"/>
<path d="M36.4197 9.10547C41.6939 9.10557 46.1243 13.0716 46.7068 18.3135L47.5925 26.2822C47.8832 28.8995 47.1657 31.529 45.5857 33.6357L43.8347 35.9697C41.8798 38.5761 38.8124 40.1104 35.5544 40.1104H30.4275L26.5261 45.3115L26.5251 45.3105C25.0893 47.225 22.837 48.3524 20.4441 48.3525H18.7693C15.4949 48.3525 12.8408 45.6981 12.8406 42.4238C12.8406 40.4022 13.8694 38.538 15.5398 37.4531L13.4578 35.3711C13.1472 35.0605 12.9412 34.6608 12.8689 34.2275L11.4138 25.4941C10.9303 22.593 11.7034 19.6229 13.5408 17.3262L17.0095 12.9902C18.9737 10.5351 21.9474 9.10559 25.0916 9.10547H36.4197ZM25.0916 13.3232C23.2284 13.3234 21.4664 14.1701 20.3025 15.625L17.2615 19.4248C17.4957 19.453 17.7298 19.5193 17.9529 19.6309C18.9943 20.1517 19.416 21.4185 18.8953 22.46L16.6599 26.9287L19.322 22.4932C19.9212 21.4945 21.217 21.1704 22.2156 21.7695C23.2141 22.3687 23.5374 23.6645 22.9382 24.6631L17.6033 33.5527L18.7419 34.6914L25.5574 24.4688C26.2034 23.4996 27.5133 23.2377 28.4822 23.8838C29.4511 24.5297 29.7122 25.8389 29.0662 26.8076L20.825 39.1709H20.824C20.6204 39.4762 20.3414 39.7236 20.0134 39.8877L18.0037 40.8926C17.4238 41.1825 17.0574 41.7755 17.0574 42.4238C17.0576 43.3691 17.824 44.1347 18.7693 44.1348H20.4441C21.5098 44.1346 22.5137 43.6329 23.1531 42.7803L27.6628 36.7666L34.8572 26.4893C35.5249 25.5355 36.8397 25.3037 37.7937 25.9717C38.7476 26.6394 38.9803 27.9541 38.3123 28.9082L33.4236 35.8926H35.5544C37.4851 35.8926 39.3033 34.984 40.4617 33.4395L42.2117 31.1055C43.148 29.857 43.5734 28.299 43.4011 26.748L42.5154 18.7793C42.1702 15.6731 39.5451 13.3233 36.4197 13.3232H25.0916Z" stroke="white" stroke-opacity="0.35" stroke-width="1.1264"/>
</svg>
